<svg xmlns="http://www.w3.org/2000/svg" xmlns:xlink="http://www.w3.org/1999/xlink" width="180" zoomAndPan="magnify" viewBox="0 0 135 135.000003" height="180" preserveAspectRatio="xMidYMid meet" version="1.0"><defs><g/><clipPath id="312fd6d3aa"><path d="M 0.496094 0 L 134.503906 0 L 134.503906 134.007812 L 0.496094 134.007812 Z M 0.496094 0 " clip-rule="nonzero"/></clipPath><clipPath id="ef6102c220"><rect x="0" width="135" y="0" height="135"/></clipPath></defs><g clip-path="url(#312fd6d3aa)"><g transform="matrix(1, 0, 0, 1, 0.000000000000000056, -0.000000000000003367)"><g clip-path="url(#ef6102c220)"><g fill="#243b53" fill-opacity="1"><g transform="translate(-2.204673, 130.570199)"><g><path d="M 38.78125 -129.03125 L 38.78125 -25.8125 L 83.203125 -25.8125 L 83.203125 0 L 9.390625 0 L 9.390625 -129.03125 Z M 38.78125 -129.03125 "/></g></g></g><g fill="#243b53" fill-opacity="1"><g transform="translate(85.692437, 130.570199)"><g><path d="M 27.21875 -33.46875 C 32.21875 -33.46875 36.460938 -31.71875 39.953125 -28.21875 C 43.453125 -24.726562 45.203125 -20.484375 45.203125 -15.484375 C 45.203125 -10.585938 43.453125 -6.390625 39.953125 -2.890625 C 36.460938 0.597656 32.21875 2.34375 27.21875 2.34375 C 22.3125 2.34375 18.113281 0.597656 14.625 -2.890625 C 11.132812 -6.390625 9.390625 -10.585938 9.390625 -15.484375 C 9.390625 -20.484375 11.132812 -24.726562 14.625 -28.21875 C 18.113281 -31.71875 22.3125 -33.46875 27.21875 -33.46875 Z M 27.21875 -33.46875 "/></g></g></g></g></g></g></svg>