<svg xmlns="http://www.w3.org/2000/svg" xmlns:xlink="http://www.w3.org/1999/xlink" width="180" zoomAndPan="magnify" viewBox="0 0 135 135.000003" height="180" preserveAspectRatio="xMidYMid meet" version="1.0"><defs><g/><clipPath id="7cf5d7d01e"><path d="M 2.304688 1.601562 L 132.695312 1.601562 L 132.695312 131.992188 L 2.304688 131.992188 Z M 2.304688 1.601562 " clip-rule="nonzero"/></clipPath><clipPath id="ececaf0105"><path d="M 12.726562 1.601562 L 122.273438 1.601562 C 128.027344 1.601562 132.695312 6.269531 132.695312 12.027344 L 132.695312 121.570312 C 132.695312 127.328125 128.027344 131.992188 122.273438 131.992188 L 12.726562 131.992188 C 6.972656 131.992188 2.304688 127.328125 2.304688 121.570312 L 2.304688 12.027344 C 2.304688 6.269531 6.972656 1.601562 12.726562 1.601562 Z M 12.726562 1.601562 " clip-rule="nonzero"/></clipPath><clipPath id="75d17e6a23"><path d="M 0.304688 0.601562 L 130.695312 0.601562 L 130.695312 130.992188 L 0.304688 130.992188 Z M 0.304688 0.601562 " clip-rule="nonzero"/></clipPath><clipPath id="2453d4b27a"><path d="M 10.726562 0.601562 L 120.273438 0.601562 C 126.027344 0.601562 130.695312 5.269531 130.695312 11.027344 L 130.695312 120.570312 C 130.695312 126.328125 126.027344 130.992188 120.273438 130.992188 L 10.726562 130.992188 C 4.972656 130.992188 0.304688 126.328125 0.304688 120.570312 L 0.304688 11.027344 C 0.304688 5.269531 4.972656 0.601562 10.726562 0.601562 Z M 10.726562 0.601562 " clip-rule="nonzero"/></clipPath><clipPath id="182293e9a2"><rect x="0" width="131" y="0" height="131"/></clipPath><clipPath id="db3accb1f5"><path d="M 17 13 L 118 13 L 118 134.007812 L 17 134.007812 Z M 17 13 " clip-rule="nonzero"/></clipPath><clipPath id="c97e61547e"><rect x="0" width="101" y="0" height="122"/></clipPath></defs><g clip-path="url(#7cf5d7d01e)"><g clip-path="url(#ececaf0105)"><g transform="matrix(1, 0, 0, 1, 2, 1)"><g clip-path="url(#182293e9a2)"><g clip-path="url(#75d17e6a23)"><g clip-path="url(#2453d4b27a)"><path fill="#243b53" d="M 0.304688 0.601562 L 130.695312 0.601562 L 130.695312 130.992188 L 0.304688 130.992188 Z M 0.304688 0.601562 " fill-opacity="1" fill-rule="nonzero"/></g></g></g></g></g></g><g clip-path="url(#db3accb1f5)"><g transform="matrix(1, 0, 0, 1, 17, 13)"><g clip-path="url(#c97e61547e)"><g fill="#ffffff" fill-opacity="1"><g transform="translate(0.436189, 99.167927)"><g><path d="M 27.25 -90.671875 L 27.25 -18.140625 L 58.46875 -18.140625 L 58.46875 0 L 6.59375 0 L 6.59375 -90.671875 Z M 27.25 -90.671875 "/></g></g></g><g fill="#ffffff" fill-opacity="1"><g transform="translate(62.204507, 99.167927)"><g><path d="M 19.125 -23.515625 C 22.644531 -23.515625 25.628906 -22.285156 28.078125 -19.828125 C 30.535156 -17.378906 31.765625 -14.394531 31.765625 -10.875 C 31.765625 -7.4375 30.535156 -4.488281 28.078125 -2.03125 C 25.628906 0.425781 22.644531 1.65625 19.125 1.65625 C 15.675781 1.65625 12.722656 0.425781 10.265625 -2.03125 C 7.816406 -4.488281 6.59375 -7.4375 6.59375 -10.875 C 6.59375 -14.394531 7.816406 -17.378906 10.265625 -19.828125 C 12.722656 -22.285156 15.675781 -23.515625 19.125 -23.515625 Z M 19.125 -23.515625 "/></g></g></g></g></g></g></svg>