<svg xmlns="http://www.w3.org/2000/svg" xmlns:xlink="http://www.w3.org/1999/xlink" width="1000" zoomAndPan="magnify" viewBox="0 0 750 225" height="300" preserveAspectRatio="xMidYMid meet" version="1.0"><defs><g/><clipPath id="ba3c1b0c1b"><rect x="0" width="695" y="0" height="225"/></clipPath></defs><g transform="matrix(1, 0, 0, 1, 41, -0.000000000000008531)"><g clip-path="url(#ba3c1b0c1b)"><g fill="#243b53" fill-opacity="1"><g transform="translate(0.968599, 214.761198)"><g><path d="M 60.921875 -202.65625 L 60.921875 -40.53125 L 130.6875 -40.53125 L 130.6875 0 L 14.734375 0 L 14.734375 -202.65625 Z M 60.921875 -202.65625 "/></g></g></g><g fill="#243b53" fill-opacity="1"><g transform="translate(139.014151, 214.761198)"><g><path d="M 59.6875 -163.109375 L 109.5625 -206.34375 L 131.90625 -178.09375 L 73.453125 -144.1875 Z M 142.21875 -56.984375 L 50.84375 -56.984375 C 50.84375 -48.140625 53.707031 -41.585938 59.4375 -37.328125 C 65.175781 -33.078125 71.398438 -30.953125 78.109375 -30.953125 C 85.148438 -30.953125 90.71875 -31.890625 94.8125 -33.765625 C 98.90625 -35.648438 103.570312 -39.378906 108.8125 -44.953125 L 140.265625 -29.234375 C 127.160156 -7.285156 105.378906 3.6875 74.921875 3.6875 C 55.921875 3.6875 39.625 -2.820312 26.03125 -15.84375 C 12.445312 -28.863281 5.65625 -44.539062 5.65625 -62.875 C 5.65625 -81.21875 12.445312 -96.941406 26.03125 -110.046875 C 39.625 -123.148438 55.921875 -129.703125 74.921875 -129.703125 C 94.898438 -129.703125 111.148438 -123.925781 123.671875 -112.375 C 136.203125 -100.832031 142.46875 -84.335938 142.46875 -62.890625 C 142.46875 -59.941406 142.382812 -57.972656 142.21875 -56.984375 Z M 52.078125 -81.0625 L 99.96875 -81.0625 C 98.988281 -87.613281 96.410156 -92.648438 92.234375 -96.171875 C 88.054688 -99.691406 82.695312 -101.453125 76.15625 -101.453125 C 68.945312 -101.453125 63.210938 -99.566406 58.953125 -95.796875 C 54.691406 -92.035156 52.398438 -87.125 52.078125 -81.0625 Z M 52.078125 -81.0625 "/></g></g></g><g fill="#243b53" fill-opacity="1"><g transform="translate(286.393714, 214.761198)"><g><path d="M 26.65625 -14.984375 C 12.65625 -27.429688 5.65625 -43.394531 5.65625 -62.875 C 5.65625 -82.363281 12.941406 -98.375 27.515625 -110.90625 C 42.085938 -123.4375 60.097656 -129.703125 81.546875 -129.703125 C 102.671875 -129.703125 120.476562 -123.394531 134.96875 -110.78125 C 149.46875 -98.175781 156.71875 -82.207031 156.71875 -62.875 C 156.71875 -43.550781 149.632812 -27.625 135.46875 -15.09375 C 121.300781 -2.570312 103.328125 3.6875 81.546875 3.6875 C 58.953125 3.6875 40.65625 -2.535156 26.65625 -14.984375 Z M 60.296875 -84.25 C 54.648438 -78.6875 51.828125 -71.5625 51.828125 -62.875 C 51.828125 -54.195312 54.53125 -47.113281 59.9375 -41.625 C 65.34375 -36.144531 72.46875 -33.40625 81.3125 -33.40625 C 89.820312 -33.40625 96.816406 -36.1875 102.296875 -41.75 C 107.785156 -47.320312 110.53125 -54.367188 110.53125 -62.890625 C 110.53125 -71.566406 107.707031 -78.6875 102.0625 -84.25 C 96.414062 -89.820312 89.5 -92.609375 81.3125 -92.609375 C 72.957031 -92.609375 65.953125 -89.820312 60.296875 -84.25 Z M 60.296875 -84.25 "/></g></g></g><g fill="#243b53" fill-opacity="1"><g transform="translate(447.528731, 214.761198)"><g><path d="M 14.734375 0 L 14.734375 -126.015625 L 58.21875 -126.015625 L 58.21875 -112.75 L 58.703125 -112.75 C 70.003906 -124.050781 82.039062 -129.703125 94.8125 -129.703125 C 101.039062 -129.703125 107.222656 -128.878906 113.359375 -127.234375 C 119.503906 -125.597656 125.398438 -123.0625 131.046875 -119.625 C 136.703125 -116.1875 141.289062 -111.3125 144.8125 -105 C 148.332031 -98.695312 150.09375 -91.375 150.09375 -83.03125 L 150.09375 0 L 106.609375 0 L 106.609375 -71.234375 C 106.609375 -77.785156 104.519531 -83.515625 100.34375 -88.421875 C 96.164062 -93.335938 90.722656 -95.796875 84.015625 -95.796875 C 77.460938 -95.796875 71.523438 -93.253906 66.203125 -88.171875 C 60.878906 -83.097656 58.21875 -77.453125 58.21875 -71.234375 L 58.21875 0 Z M 14.734375 0 "/></g></g></g><g fill="#243b53" fill-opacity="1"><g transform="translate(609.155007, 214.761198)"><g><path d="M 42.734375 -52.5625 C 50.597656 -52.5625 57.269531 -49.816406 62.75 -44.328125 C 68.238281 -38.847656 70.984375 -32.175781 70.984375 -24.3125 C 70.984375 -16.613281 68.238281 -10.019531 62.75 -4.53125 C 57.269531 0.945312 50.597656 3.6875 42.734375 3.6875 C 35.046875 3.6875 28.457031 0.945312 22.96875 -4.53125 C 17.476562 -10.019531 14.734375 -16.613281 14.734375 -24.3125 C 14.734375 -32.175781 17.476562 -38.847656 22.96875 -44.328125 C 28.457031 -49.816406 35.046875 -52.5625 42.734375 -52.5625 Z M 42.734375 -52.5625 "/></g></g></g></g></g></svg>